<mxfile host="65bd71144e">
    <diagram id="IOgTfh5Igraj6vL3ae4j" name="Page-1">
        <mxGraphModel dx="1950" dy="779" grid="1" gridSize="10" guides="1" tooltips="1" connect="1" arrows="1" fold="1" page="1" pageScale="1" pageWidth="850" pageHeight="1100" math="0" shadow="0">
            <root>
                <mxCell id="0"/>
                <mxCell id="1" parent="0"/>
                <mxCell id="2" value="email-notifications" style="rounded=0;whiteSpace=wrap;html=1;" parent="1" vertex="1">
                    <mxGeometry x="120" y="150" width="120" height="60" as="geometry"/>
                </mxCell>
                <mxCell id="3" value="websocket-notifications" style="rounded=0;whiteSpace=wrap;html=1;" vertex="1" parent="1">
                    <mxGeometry x="120" y="240" width="120" height="60" as="geometry"/>
                </mxCell>
                <mxCell id="4" value="1A" style="rounded=0;whiteSpace=wrap;html=1;fillColor=#f8cecc;strokeColor=#b85450;" vertex="1" parent="1">
                    <mxGeometry x="280" y="165" width="30" height="30" as="geometry"/>
                </mxCell>
                <mxCell id="5" value="2A" style="rounded=0;whiteSpace=wrap;html=1;fillColor=#f8cecc;strokeColor=#b85450;" vertex="1" parent="1">
                    <mxGeometry x="320" y="165" width="30" height="30" as="geometry"/>
                </mxCell>
                <mxCell id="6" value="3A" style="rounded=0;whiteSpace=wrap;html=1;fillColor=#f8cecc;strokeColor=#b85450;" vertex="1" parent="1">
                    <mxGeometry x="360" y="165" width="30" height="30" as="geometry"/>
                </mxCell>
                <mxCell id="7" value="1B" style="rounded=0;whiteSpace=wrap;html=1;fillColor=#f8cecc;strokeColor=#b85450;" vertex="1" parent="1">
                    <mxGeometry x="280" y="255" width="30" height="30" as="geometry"/>
                </mxCell>
                <mxCell id="8" value="2B" style="rounded=0;whiteSpace=wrap;html=1;fillColor=#f8cecc;strokeColor=#b85450;" vertex="1" parent="1">
                    <mxGeometry x="320" y="255" width="30" height="30" as="geometry"/>
                </mxCell>
                <mxCell id="9" value="3B" style="rounded=0;whiteSpace=wrap;html=1;fillColor=#f8cecc;strokeColor=#b85450;" vertex="1" parent="1">
                    <mxGeometry x="360" y="255" width="30" height="30" as="geometry"/>
                </mxCell>
                <mxCell id="10" value="kafka1" style="rounded=0;whiteSpace=wrap;html=1;" vertex="1" parent="1">
                    <mxGeometry x="40" y="380" width="120" height="60" as="geometry"/>
                </mxCell>
                <mxCell id="13" value="kafka 2" style="rounded=0;whiteSpace=wrap;html=1;" vertex="1" parent="1">
                    <mxGeometry x="40" y="475" width="120" height="60" as="geometry"/>
                </mxCell>
                <mxCell id="14" value="kafka 3" style="rounded=0;whiteSpace=wrap;html=1;" vertex="1" parent="1">
                    <mxGeometry x="40" y="570" width="120" height="60" as="geometry"/>
                </mxCell>
                <mxCell id="15" value="1A" style="rounded=0;whiteSpace=wrap;html=1;" vertex="1" parent="1">
                    <mxGeometry x="200" y="395" width="30" height="30" as="geometry"/>
                </mxCell>
                <mxCell id="16" value="2A" style="rounded=0;whiteSpace=wrap;html=1;" vertex="1" parent="1">
                    <mxGeometry x="240" y="395" width="30" height="30" as="geometry"/>
                </mxCell>
                <mxCell id="17" value="3A" style="rounded=0;whiteSpace=wrap;html=1;" vertex="1" parent="1">
                    <mxGeometry x="280" y="395" width="30" height="30" as="geometry"/>
                </mxCell>
                <mxCell id="18" value="1A" style="rounded=0;whiteSpace=wrap;html=1;" vertex="1" parent="1">
                    <mxGeometry x="200" y="585" width="30" height="30" as="geometry"/>
                </mxCell>
                <mxCell id="19" value="2A" style="rounded=0;whiteSpace=wrap;html=1;" vertex="1" parent="1">
                    <mxGeometry x="240" y="585" width="30" height="30" as="geometry"/>
                </mxCell>
                <mxCell id="20" value="3A" style="rounded=0;whiteSpace=wrap;html=1;" vertex="1" parent="1">
                    <mxGeometry x="280" y="585" width="30" height="30" as="geometry"/>
                </mxCell>
                <mxCell id="21" value="1A" style="rounded=0;whiteSpace=wrap;html=1;" vertex="1" parent="1">
                    <mxGeometry x="200" y="490" width="30" height="30" as="geometry"/>
                </mxCell>
                <mxCell id="22" value="2A" style="rounded=0;whiteSpace=wrap;html=1;" vertex="1" parent="1">
                    <mxGeometry x="240" y="490" width="30" height="30" as="geometry"/>
                </mxCell>
                <mxCell id="23" value="3A" style="rounded=0;whiteSpace=wrap;html=1;" vertex="1" parent="1">
                    <mxGeometry x="280" y="490" width="30" height="30" as="geometry"/>
                </mxCell>
                <mxCell id="24" value="1B" style="rounded=0;whiteSpace=wrap;html=1;" vertex="1" parent="1">
                    <mxGeometry x="350" y="395" width="30" height="30" as="geometry"/>
                </mxCell>
                <mxCell id="25" value="2B" style="rounded=0;whiteSpace=wrap;html=1;" vertex="1" parent="1">
                    <mxGeometry x="390" y="395" width="30" height="30" as="geometry"/>
                </mxCell>
                <mxCell id="26" value="3B" style="rounded=0;whiteSpace=wrap;html=1;" vertex="1" parent="1">
                    <mxGeometry x="430" y="395" width="30" height="30" as="geometry"/>
                </mxCell>
                <mxCell id="27" value="1B" style="rounded=0;whiteSpace=wrap;html=1;" vertex="1" parent="1">
                    <mxGeometry x="350" y="585" width="30" height="30" as="geometry"/>
                </mxCell>
                <mxCell id="28" value="2B" style="rounded=0;whiteSpace=wrap;html=1;" vertex="1" parent="1">
                    <mxGeometry x="390" y="585" width="30" height="30" as="geometry"/>
                </mxCell>
                <mxCell id="29" value="3B" style="rounded=0;whiteSpace=wrap;html=1;" vertex="1" parent="1">
                    <mxGeometry x="430" y="585" width="30" height="30" as="geometry"/>
                </mxCell>
                <mxCell id="30" value="1B" style="rounded=0;whiteSpace=wrap;html=1;" vertex="1" parent="1">
                    <mxGeometry x="350" y="490" width="30" height="30" as="geometry"/>
                </mxCell>
                <mxCell id="31" value="2B" style="rounded=0;whiteSpace=wrap;html=1;" vertex="1" parent="1">
                    <mxGeometry x="390" y="490" width="30" height="30" as="geometry"/>
                </mxCell>
                <mxCell id="32" value="3B" style="rounded=0;whiteSpace=wrap;html=1;" vertex="1" parent="1">
                    <mxGeometry x="430" y="490" width="30" height="30" as="geometry"/>
                </mxCell>
                <mxCell id="33" value="&lt;span style=&quot;color: rgb(0, 0, 0);&quot;&gt;email-notification-group&lt;/span&gt;" style="swimlane;whiteSpace=wrap;html=1;startSize=23;" vertex="1" parent="1">
                    <mxGeometry x="530" y="60" width="200" height="100" as="geometry"/>
                </mxCell>
                <mxCell id="34" value="websocket-notification-group" style="swimlane;whiteSpace=wrap;html=1;startSize=23;" vertex="1" parent="1">
                    <mxGeometry x="530" y="240" width="200" height="110" as="geometry"/>
                </mxCell>
                <mxCell id="35" value="producer" style="swimlane;whiteSpace=wrap;html=1;" vertex="1" parent="1">
                    <mxGeometry x="-120" y="165" width="200" height="120" as="geometry"/>
                </mxCell>
            </root>
        </mxGraphModel>
    </diagram>
</mxfile>